<svg width="32" height="32" viewBox="0 0 32 32" fill="none" xmlns="http://www.w3.org/2000/svg">
<path d="M4.45044 22.667C6.75584 26.6523 11.0648 29.3337 16 29.3337C20.9352 29.3337 25.2442 26.6523 27.5496 22.667" stroke="black" stroke-width="1.5" stroke-linecap="round" stroke-linejoin="round"/>
<path d="M4.45056 9.33366C6.75596 5.34832 11.0649 2.66699 16.0001 2.66699C20.9353 2.66699 25.2443 5.34832 27.5497 9.33366" stroke="black" stroke-width="1.5" stroke-linecap="round" stroke-linejoin="round"/>
<path d="M17.3334 29.2679C17.3334 29.2679 19.2105 26.7959 20.3929 22.667" stroke="black" stroke-width="1.5" stroke-linecap="round" stroke-linejoin="round"/>
<path d="M17.3334 2.73242C17.3334 2.73242 19.2105 5.20438 20.3929 9.33333" stroke="black" stroke-width="1.5" stroke-linecap="round" stroke-linejoin="round"/>
<path d="M14.6666 29.2679C14.6666 29.2679 12.7895 26.7959 11.6071 22.667" stroke="black" stroke-width="1.5" stroke-linecap="round" stroke-linejoin="round"/>
<path d="M14.6666 2.73242C14.6666 2.73242 12.7895 5.20438 11.6071 9.33333" stroke="black" stroke-width="1.5" stroke-linecap="round" stroke-linejoin="round"/>
<path d="M12 13.333L14 19.9997L16 13.333L18 19.9997L20 13.333" stroke="black" stroke-width="1.5" stroke-linecap="round" stroke-linejoin="round"/>
<path d="M1.33337 13.333L3.33337 19.9997L5.33337 13.333L7.33337 19.9997L9.33337 13.333" stroke="black" stroke-width="1.5" stroke-linecap="round" stroke-linejoin="round"/>
<path d="M22.6666 13.333L24.6666 19.9997L26.6666 13.333L28.6666 19.9997L30.6666 13.333" stroke="black" stroke-width="1.5" stroke-linecap="round" stroke-linejoin="round"/>
</svg>
