<svg width="32" height="32" viewBox="0 0 32 32" fill="none" xmlns="http://www.w3.org/2000/svg">
<path d="M28 9.68605L28 22.3133C28 22.5312 27.8819 22.732 27.6914 22.8378L16.2914 29.1711C16.1102 29.2718 15.8898 29.2718 15.7086 29.1711L4.30861 22.8378C4.11814 22.732 4 22.5312 4 22.3133L3.99998 9.68605C3.99998 9.46815 4.11811 9.26738 4.30859 9.16155L15.7086 2.82822C15.8898 2.72755 16.1102 2.72755 16.2914 2.82822L27.6914 9.16155C27.8818 9.26738 28 9.46815 28 9.68605Z" stroke="black" stroke-width="1.5" stroke-linecap="round" stroke-linejoin="round"/>
<path d="M27.3333 22.2969L16.2913 16.1625C16.1101 16.0618 15.8898 16.0618 15.7086 16.1625L4.66658 22.2969" stroke="black" stroke-width="1.5" stroke-linecap="round" stroke-linejoin="round"/>
<path d="M4.7045 9.72419L15.7086 15.8375C15.8898 15.9382 16.1101 15.9382 16.2913 15.8375L27.3333 9.70312" stroke="black" stroke-width="1.5" stroke-linecap="round" stroke-linejoin="round"/>
<path d="M16 28L16 4" stroke="black" stroke-width="1.5" stroke-linecap="round" stroke-linejoin="round"/>
</svg>
