<svg width="319" height="180" viewBox="0 0 319 180" fill="none" xmlns="http://www.w3.org/2000/svg">
<ellipse cx="177" cy="78.5" rx="14" ry="14.5" fill="#F43F5E" fill-opacity="0.45"/>
<path d="M190.72 78.8868C190.528 81.0491 190.089 83.0493 188.939 84.7402C189.184 83.8695 189.347 82.9776 189.425 82.0763C190.14 73.9674 183.53 66.8677 175.469 66.6064C175.028 66.5936 174.587 66.6046 174.148 66.6394C175.698 65.9753 177.371 65.6457 179.058 65.6724C180.705 65.7354 182.322 66.132 183.81 66.8384C185.299 67.5447 186.629 68.546 187.72 69.7816C188.81 71.0172 189.638 72.4613 190.154 74.0264C190.669 75.5915 190.862 77.245 190.72 78.8868Z" fill="#231F20"/>
<path d="M189.338 70.4156C190.535 72.3567 191.269 74.5471 191.483 76.8173C191.697 79.0874 191.385 81.3764 190.573 83.5069C189.995 85.0619 189.158 86.5078 188.098 87.7835C186.218 90.0219 183.706 91.6394 180.89 92.4236C180.193 92.6163 179.482 92.7558 178.764 92.841C178.406 92.8951 178.043 92.9041 177.686 92.9341C177.328 92.9642 176.965 92.9612 176.604 92.9341C175.885 92.9158 175.167 92.8476 174.457 92.7299L173.397 92.4987C173.046 92.4056 172.706 92.2854 172.361 92.1803C171.159 91.7469 170.011 91.1787 168.937 90.4865C167.882 89.7761 166.906 88.9545 166.027 88.0358C164.899 86.8459 163.994 85.4636 163.354 83.9544C162.714 82.4361 162.414 80.7957 162.477 79.1491C162.522 78.122 162.777 78.3052 163.045 79.1491C163.111 79.3533 163.162 79.5996 163.237 79.8789C163.312 80.1582 163.414 80.4616 163.498 80.7949L163.561 81.0502C163.588 81.1343 163.618 81.2214 163.648 81.3085C163.708 81.4857 163.765 81.6689 163.823 81.8551C163.913 82.2365 164.09 82.6149 164.219 83.0233C165.261 85.8975 167.423 88.3301 170.057 89.9459C171.373 90.7622 172.82 91.3453 174.334 91.6698C175.868 91.9819 177.443 92.0367 178.995 91.8319C180.895 91.569 182.712 90.8846 184.314 89.8288C186.924 88.1079 188.875 85.5556 189.852 82.5861C190.829 79.6166 190.774 76.4041 189.696 73.4699C189.225 72.24 188.594 71.0777 187.819 70.0132C187.014 68.9683 186.076 68.0333 185.029 67.2321C183.427 66.0213 181.573 65.1859 179.605 64.7875C178.625 64.5952 177.627 64.5026 176.628 64.5112C175.634 64.5451 174.647 64.6963 173.688 64.9617C172.207 65.3751 170.801 66.0186 169.52 66.8687C168.249 67.6961 167.123 68.7282 166.189 69.9231C165.785 70.4372 165.428 70.987 165.123 71.5659C164.729 72.3342 164.41 73.1388 164.171 73.9685C164.132 74.1036 164.093 74.2268 164.051 74.3349C164.009 74.443 163.985 74.5451 163.952 74.6352C163.888 74.7912 163.814 74.9427 163.729 75.0887C163.669 75.2121 163.598 75.3297 163.516 75.4401C163.402 75.5602 163.318 75.359 163.27 74.8695C163.243 74.119 163.345 73.3694 163.57 72.653C164.03 71.2311 164.771 69.9165 165.751 68.7878C166.725 67.6439 167.87 66.6563 169.144 65.8596C170.439 65.0425 171.843 64.4154 173.316 63.9976C174.063 63.7877 174.825 63.6381 175.595 63.5501C175.788 63.5261 175.983 63.5111 176.178 63.4991C176.373 63.4871 176.562 63.457 176.764 63.457H177.064H177.364L177.947 63.4931C180.263 63.6415 182.509 64.3528 184.488 65.5653C186.458 66.7771 188.128 68.4201 189.371 70.3706L189.338 70.4156Z" fill="#231F20"/>
<path d="M171.238 84.9009C170.535 84.3923 169.84 83.8708 169.153 83.3362C168.907 83.141 168.637 82.9698 168.393 82.7686C167.531 82.0538 166.706 81.294 165.907 80.5071C165.733 80.3299 165.552 80.1587 165.369 79.9875L164.85 79.468C164.359 79.0485 163.941 78.5513 163.612 77.9964C163.516 77.8162 163.753 77.696 164.063 77.657C164.226 77.6352 164.392 77.6509 164.548 77.7029C164.704 77.755 164.846 77.842 164.964 77.9573C165.763 78.8583 166.637 79.7593 167.51 80.6783C168.075 81.2147 168.678 81.7105 169.312 82.1619C169.988 82.6905 170.67 83.2161 171.37 83.7146C171.796 84.0299 172.235 84.3153 172.673 84.6156C173.34 85.0601 174.01 85.5166 174.703 85.91C175.241 86.2103 175.802 86.4626 176.355 86.7269C176.478 86.787 176.601 86.835 176.724 86.8981C177.172 87.1293 177.277 87.2705 177.235 87.5678C177.23 87.6345 177.22 87.7008 177.205 87.766C177.142 87.9792 176.878 88.0333 176.52 87.9042C175.444 87.4883 174.412 86.9661 173.439 86.3455C172.694 85.895 171.97 85.3994 171.244 84.9099L171.238 84.9009Z" fill="#231F20"/>
<path d="M168.033 81.8022C166.697 80.73 165.39 79.6248 164.129 78.4686C163.666 78.0451 163.189 77.6397 162.744 77.1982C161.95 76.4194 161.199 75.5972 160.495 74.7355C160.141 74.2986 159.81 73.8435 159.504 73.372C159.183 72.8897 158.92 72.3716 158.72 71.8283C158.508 71.3046 158.456 70.7299 158.57 70.1765C158.643 69.8815 158.79 69.6098 158.996 69.3867C159.097 69.2796 159.204 69.1793 159.318 69.0864C159.434 69.003 159.557 68.9278 159.684 68.8611C160.015 68.7102 160.372 68.6236 160.735 68.6058C161.08 68.5921 161.425 68.6214 161.762 68.6929C162.421 68.8317 163.041 69.1125 163.579 69.5158C163.75 69.651 163.774 69.7771 163.702 69.8492C163.577 69.9393 163.427 69.9895 163.273 69.9933C162.744 70.0418 162.211 69.995 161.699 69.8552C161.232 69.7079 160.732 69.6954 160.258 69.8192C160.072 69.8754 159.904 69.9789 159.771 70.1195C159.653 70.2475 159.579 70.4093 159.558 70.582C159.546 71.0874 159.668 71.5868 159.912 72.0296C160.18 72.5668 160.488 73.0828 160.834 73.5732C161.684 74.7746 162.834 75.8677 163.952 76.9249C165.183 78.0902 166.474 79.2044 167.796 80.2826C168.609 80.9473 169.436 81.596 170.276 82.2287C171.547 83.1867 172.835 84.1327 174.154 85.0037C175.181 85.6824 176.229 86.2771 177.283 86.8747L177.98 87.2561C178.842 87.7517 179.082 87.9589 179.136 88.3043C179.155 88.382 179.166 88.4615 179.169 88.5415C179.154 88.7758 178.704 88.7398 178.028 88.4184C175.988 87.4025 174.033 86.2255 172.181 84.8986C170.766 83.9165 169.381 82.8744 168.018 81.8112L168.033 81.8022Z" fill="#231F20"/>
<path d="M188.726 92.813C188.04 92.8015 187.358 92.7006 186.698 92.5127C186.464 92.4526 186.224 92.4136 185.999 92.3355C185.21 92.0563 184.444 91.72 183.704 91.3294C183.377 91.1642 183.04 91.0141 182.707 90.8579C182.264 90.6973 181.856 90.4525 181.506 90.1371C181.401 90.029 181.569 89.8188 181.806 89.6626C181.913 89.5774 182.04 89.5205 182.175 89.4968C182.31 89.4732 182.448 89.4838 182.578 89.5274C183.356 89.9599 184.149 90.3864 184.95 90.8459C185.45 91.0977 185.977 91.2902 186.521 91.4195C187.098 91.5995 187.692 91.7193 188.293 91.7769C188.634 91.8137 188.98 91.7872 189.311 91.6988C189.405 91.6757 189.491 91.6295 189.562 91.5644C189.632 91.4994 189.686 91.4175 189.717 91.3264C189.762 91.0953 189.733 90.8559 189.636 90.6417C189.454 90.261 189.207 89.9153 188.906 89.6206C188.843 89.5515 188.771 89.4914 188.708 89.4223C188.473 89.1641 188.449 89.0409 188.599 88.7947C188.631 88.7359 188.665 88.6788 188.702 88.6235C188.831 88.4493 189.071 88.4373 189.302 88.6235C189.666 88.9006 189.98 89.2366 190.233 89.6175C190.548 90.0668 190.731 90.5953 190.762 91.1432C190.768 91.4249 190.701 91.7033 190.567 91.9511C190.426 92.2034 190.218 92.4115 189.966 92.5517C189.583 92.7464 189.161 92.8492 188.732 92.8521L188.726 92.813Z" fill="#231F20"/>
<path d="M153.861 76.6709C154.511 77.1564 155.115 77.7025 155.663 78.3017C155.756 78.3834 155.877 78.4266 156.001 78.4224C156.125 78.4183 156.243 78.3671 156.331 78.2793C156.419 78.1915 156.47 78.0736 156.474 77.9495C156.478 77.8255 156.435 77.7044 156.353 77.6109C155.746 76.9551 155.077 76.3587 154.356 75.83C153.834 75.4786 153.344 76.3225 153.864 76.6709H153.861Z" fill="#231F20"/>
<path d="M154.164 83.3137C154.65 82.9877 155.188 82.7479 155.756 82.6049C156.356 82.4488 156.104 81.5057 155.494 81.6619C154.846 81.8273 154.23 82.1004 153.671 82.4698C153.152 82.8152 153.638 83.6711 154.164 83.3137Z" fill="#231F20"/>
<path d="M213.499 74.2768C213.465 74.2631 213.465 74.2239 213.485 74.1717C213.504 74.1194 213.526 74.1196 213.545 74.1322C213.567 74.1343 213.588 74.1395 213.609 74.1478C213.609 74.1478 213.767 74.2634 213.816 74.2997C213.863 74.3365 213.908 74.3771 213.949 74.4209C214.033 74.5058 214.12 74.5891 214.205 74.6765C214.223 74.6975 214.237 74.7202 214.25 74.7444C214.304 74.8189 214.366 74.8879 214.434 74.9502C214.443 74.9628 214.451 74.9754 214.472 74.9756C214.551 75.0413 214.625 75.1133 214.692 75.1909C214.736 75.2587 214.781 75.3266 214.825 75.3945C214.825 75.3945 214.838 75.4146 214.845 75.4247C214.847 75.4374 214.852 75.4496 214.859 75.4604C214.866 75.4713 214.875 75.4805 214.886 75.4875C214.906 75.5177 214.924 75.5454 214.943 75.5755C214.955 75.589 214.965 75.6043 214.973 75.6208C214.983 75.6359 214.948 75.6547 214.938 75.6438C214.927 75.6329 214.915 75.6586 214.905 75.6651C214.835 75.6318 214.768 75.593 214.704 75.5491C214.704 75.5491 214.485 75.3513 214.466 75.3453C214.455 75.3311 214.446 75.316 214.437 75.3001C214.437 75.3001 214.255 75.1426 214.25 75.1351C214.212 75.1044 214.18 75.0668 214.156 75.0242C214.154 75.0153 214.149 75.0073 214.141 75.0016C214.082 74.9445 214.026 74.8842 213.973 74.821C213.95 74.7858 213.912 74.7604 213.884 74.7285C213.856 74.6966 213.876 74.7159 213.873 74.7109C213.868 74.7017 213.863 74.6932 213.856 74.6858C213.784 74.6184 213.72 74.5379 213.639 74.4688C213.628 74.4512 213.567 74.3582 213.552 74.3356C213.537 74.3129 213.513 74.2819 213.499 74.2768Z" fill="#221F1F"/>
<path d="M213.602 75.62C213.586 75.6557 213.546 75.6562 213.494 75.6365C213.442 75.6169 213.442 75.5952 213.455 75.5762L213.469 75.5097L213.631 75.2963C213.669 75.2474 213.711 75.2019 213.757 75.16L214.023 74.8926L214.091 74.8482C214.169 74.7916 214.241 74.7275 214.307 74.657C214.319 74.6455 214.328 74.632 214.335 74.6173C214.399 74.5367 214.471 74.4623 214.549 74.3952C214.619 74.3492 214.689 74.3032 214.752 74.2447C214.752 74.2447 214.772 74.2315 214.782 74.2249C214.808 74.2199 214.832 74.2046 214.847 74.1822C214.876 74.1601 214.906 74.1403 214.938 74.1231C214.952 74.1104 214.968 74.0999 214.985 74.0919C215.001 74.082 215.019 74.1164 215.008 74.1271C214.998 74.1378 215.022 74.1472 215.028 74.1573C215.031 74.1616 215.033 74.1658 215.036 74.1698C215 74.2416 214.959 74.3105 214.913 74.3761L214.688 74.6306C214.675 74.6428 214.659 74.6528 214.643 74.6601C214.643 74.6601 214.479 74.8494 214.469 74.8559C214.438 74.8945 214.399 74.9269 214.356 74.9515C214.346 74.9542 214.337 74.9599 214.331 74.9679C214.272 75.0315 214.207 75.085 214.144 75.1436C214.082 75.2022 214.081 75.2063 214.051 75.2369L214.006 75.2664C213.932 75.3399 213.853 75.4058 213.789 75.4835C213.771 75.495 213.673 75.559 213.651 75.5738C213.628 75.5886 213.602 75.5984 213.602 75.62Z" fill="#221F1F"/>
<path d="M213.342 74.914C213.314 74.9321 213.286 74.9002 213.264 74.85C213.242 74.7998 213.259 74.7816 213.267 74.7767L213.319 74.7422L213.555 74.7069C213.609 74.6992 213.664 74.6955 213.72 74.696L214.056 74.6949L214.13 74.704C214.215 74.7176 214.301 74.7226 214.387 74.7189C214.402 74.7187 214.416 74.7166 214.43 74.7126C214.524 74.7002 214.619 74.6983 214.713 74.7069C214.788 74.7226 214.862 74.7316 214.935 74.7448C215.008 74.758 214.953 74.7333 214.969 74.7518C214.984 74.7702 215.013 74.7697 215.036 74.7724C215.068 74.7738 215.1 74.7782 215.131 74.7858C215.148 74.7917 215.165 74.8003 215.18 74.8112C215.188 74.8238 215.184 74.8512 215.179 74.8545C215.174 74.8578 215.176 74.8778 215.178 74.8912C215.111 74.9179 215.041 74.9382 214.97 74.9517L214.667 74.9705C214.651 74.972 214.635 74.9701 214.62 74.9651L214.389 74.9796C214.344 74.9855 214.298 74.9811 214.255 74.9667C214.248 74.9688 214.242 74.9728 214.238 74.9782C214.161 74.9816 214.087 74.9726 214.009 74.9694C213.932 74.9662 213.929 74.9678 213.893 74.9666L213.87 74.9639L213.845 74.9587C213.753 74.9612 213.66 74.9503 213.569 74.9594C213.551 74.9709 213.445 74.94 213.421 74.9414C213.397 74.9428 213.352 74.9074 213.342 74.914Z" fill="#221F1F"/>
<path d="M214.296 75.7326C214.314 75.7603 214.281 75.7858 214.23 75.8011C214.206 75.8069 214.18 75.8046 214.157 75.7946C214.144 75.7796 214.133 75.7626 214.125 75.7443C214.125 75.7443 214.106 75.5734 214.1 75.52C214.095 75.4682 214.095 75.4159 214.102 75.3643C214.109 75.2594 214.112 75.1536 214.121 75.0471C214.122 75.0244 214.126 75.0018 214.131 74.9797C214.15 74.9007 214.16 74.8197 214.16 74.7384C214.163 74.7246 214.162 74.7103 214.158 74.6967C214.152 74.6077 214.156 74.5183 214.17 74.4303L214.22 74.2217C214.22 74.2217 214.211 74.2066 214.231 74.1935C214.246 74.1753 214.254 74.1523 214.253 74.1287L214.271 74.0414C214.279 74.0254 214.288 74.0106 214.3 73.9975C214.3 73.9975 214.339 73.9971 214.342 74.0021C214.346 74.0071 214.366 74.0048 214.379 74.0033C214.4 74.0681 214.416 74.1345 214.426 74.2019L214.427 74.4885C214.428 74.5035 214.425 74.5186 214.42 74.5326C214.42 74.5326 214.421 74.7434 214.422 74.75C214.423 74.7929 214.416 74.8357 214.4 74.8756C214.397 74.883 214.396 74.891 214.397 74.8989C214.394 74.9714 214.386 75.0437 214.374 75.1153C214.368 75.151 214.371 75.1885 214.366 75.2243L214.374 75.2369C214.371 75.2449 214.37 75.2533 214.369 75.2618C214.364 75.3476 214.348 75.4332 214.352 75.5207C214.361 75.5358 214.323 75.6362 214.327 75.6588C214.331 75.6813 214.292 75.7209 214.296 75.7326Z" fill="#221F1F"/>
<path d="M177.349 121.94C177.298 121.916 177.295 121.857 177.318 121.777C177.335 121.746 177.362 121.721 177.396 121.709C177.43 121.716 177.463 121.725 177.496 121.737C177.504 121.749 177.743 121.934 177.819 121.989C177.894 122.047 177.965 122.111 178.03 122.181C178.168 122.32 178.307 122.456 178.443 122.593C178.474 122.623 178.502 122.656 178.526 122.693C178.616 122.811 178.716 122.921 178.826 123.02C178.842 123.039 178.862 123.054 178.884 123.065C179.01 123.17 179.127 123.285 179.235 123.41C179.307 123.52 179.393 123.619 179.471 123.722C179.486 123.734 179.497 123.751 179.502 123.77C179.512 123.809 179.535 123.845 179.568 123.87C179.602 123.915 179.633 123.962 179.66 124.011C179.677 124.034 179.692 124.06 179.702 124.087C179.716 124.107 179.669 124.134 179.652 124.12C179.636 124.106 179.622 124.14 179.609 124.148L179.592 124.159C179.487 124.113 179.385 124.06 179.287 124C179.287 124 178.939 123.682 178.896 123.649C178.878 123.627 178.863 123.604 178.85 123.579C178.85 123.579 178.563 123.321 178.553 123.31C178.494 123.26 178.445 123.2 178.405 123.134C178.399 123.12 178.391 123.107 178.381 123.096C178.285 123.004 178.2 122.902 178.11 122.803C178.074 122.747 178.015 122.707 177.966 122.66C177.959 122.651 177.952 122.64 177.947 122.63C177.939 122.617 177.93 122.605 177.922 122.592C177.807 122.481 177.705 122.353 177.584 122.25C177.564 122.22 177.455 122.079 177.422 122.051C177.389 122.022 177.369 121.949 177.349 121.94Z" fill="#221F1F"/>
<path d="M177.494 124.095C177.469 124.151 177.408 124.151 177.33 124.13C177.252 124.11 177.256 124.071 177.259 124.055C177.266 124.02 177.276 123.986 177.29 123.953C177.305 123.943 177.484 123.7 177.553 123.615C177.618 123.535 177.689 123.459 177.764 123.388L178.199 122.956C178.231 122.925 178.264 122.896 178.3 122.869C178.424 122.777 178.539 122.673 178.643 122.559C178.662 122.542 178.678 122.522 178.69 122.5C178.799 122.368 178.918 122.246 179.047 122.134C179.16 122.06 179.263 121.971 179.37 121.887C179.385 121.877 179.402 121.866 179.417 121.856C179.459 121.845 179.496 121.82 179.523 121.787C179.566 121.748 179.612 121.711 179.659 121.676C179.686 121.663 179.715 121.651 179.744 121.642C179.767 121.627 179.791 121.676 179.777 121.692C179.763 121.709 179.797 121.723 179.807 121.738C179.811 121.742 179.814 121.747 179.817 121.753C179.757 121.865 179.69 121.973 179.614 122.075L179.248 122.48C179.226 122.499 179.201 122.515 179.175 122.527L178.897 122.838C178.843 122.897 178.782 122.95 178.715 122.993C178.7 122.999 178.686 123.008 178.674 123.019C178.582 123.119 178.476 123.21 178.374 123.301C178.317 123.339 178.273 123.399 178.224 123.45L178.151 123.497C178.035 123.616 177.906 123.722 177.799 123.849C177.769 123.869 177.622 123.983 177.593 124.016C177.564 124.049 177.509 124.085 177.494 124.095Z" fill="#221F1F"/>
<path d="M177.088 122.957C177.043 122.987 176.998 122.94 176.964 122.866C176.949 122.843 176.953 122.773 176.968 122.763L177.049 122.71C177.064 122.7 177.336 122.673 177.426 122.657C177.514 122.647 177.603 122.643 177.691 122.645L178.233 122.65C178.274 122.649 178.314 122.653 178.354 122.661C178.489 122.681 178.626 122.688 178.762 122.681C178.786 122.683 178.809 122.68 178.832 122.672C178.983 122.657 179.135 122.655 179.286 122.665C179.405 122.688 179.526 122.702 179.644 122.719C179.644 122.719 179.679 122.717 179.696 122.731C179.712 122.746 179.766 122.757 179.805 122.761C179.856 122.763 179.907 122.769 179.957 122.78C179.983 122.788 180.008 122.799 180.032 122.813C180.045 122.833 180.042 122.871 180.034 122.876C180.027 122.881 180.029 122.912 180.032 122.928L180.042 122.943C179.935 122.979 179.825 123.008 179.714 123.028C179.714 123.028 179.275 123.049 179.226 123.056C179.2 123.056 179.175 123.053 179.15 123.049C179.15 123.049 178.801 123.065 178.779 123.069C178.707 123.073 178.635 123.067 178.566 123.05C178.552 123.046 178.538 123.045 178.523 123.045C178.401 123.05 178.279 123.04 178.157 123.034C178.095 123.03 178.032 123.03 177.97 123.034L177.937 123.027L177.893 123.02C177.745 123.023 177.598 123.008 177.448 123.02C177.423 123.036 177.253 122.989 177.213 122.994C177.173 122.999 177.107 122.948 177.088 122.957Z" fill="#221F1F"/>
<path d="M178.604 124.286C178.631 124.326 178.583 124.368 178.507 124.395C178.485 124.41 178.413 124.4 178.403 124.385C178.384 124.36 178.367 124.334 178.353 124.307C178.343 124.292 178.331 124.037 178.332 123.962C178.325 123.879 178.326 123.795 178.334 123.712L178.362 123.206C178.364 123.169 178.37 123.131 178.379 123.095C178.407 122.968 178.421 122.839 178.421 122.709C178.424 122.687 178.423 122.664 178.417 122.643C178.41 122.499 178.417 122.355 178.438 122.213C178.467 122.104 178.488 121.994 178.512 121.882C178.512 121.882 178.512 121.849 178.528 121.835C178.544 121.821 178.555 121.767 178.562 121.734C178.565 121.685 178.575 121.636 178.59 121.59C178.599 121.565 178.612 121.543 178.628 121.522C178.649 121.509 178.686 121.517 178.691 121.524C178.696 121.532 178.724 121.531 178.744 121.529C178.774 121.632 178.797 121.738 178.81 121.844C178.81 121.844 178.807 122.256 178.809 122.304C178.809 122.328 178.804 122.352 178.795 122.375L178.8 122.73C178.801 122.798 178.79 122.865 178.769 122.929C178.763 122.942 178.761 122.956 178.763 122.969C178.759 123.083 178.741 123.199 178.726 123.313C178.711 123.427 178.721 123.431 178.715 123.489C178.714 123.5 178.711 123.511 178.708 123.522C178.704 123.534 178.702 123.547 178.7 123.559C178.695 123.699 178.67 123.837 178.673 123.979C178.673 124.011 178.63 124.161 178.633 124.198C178.636 124.236 178.599 124.267 178.604 124.286Z" fill="#221F1F"/>
<path opacity="0.5" d="M227.305 62.1717C227.419 63.5923 224.966 63.2739 225.38 61.9014C225.678 60.9194 227.227 61.2047 227.305 62.1717Z" fill="#231F20"/>
<path opacity="0.3" d="M236.146 93.9168C236.285 95.1752 234.882 95.2863 234.296 94.6436C233.353 93.6075 234.435 92.7065 235.597 93.4783C235.747 93.5774 236.059 93.1449 236.146 93.9168Z" fill="#231F20"/>
<path opacity="0.3" d="M176.381 114.878C176.52 116.136 175.117 116.247 174.531 115.605C173.588 114.568 174.67 113.667 175.832 114.439C175.982 114.538 176.294 114.106 176.381 114.878Z" fill="#231F20"/>
<path opacity="0.3" d="M118.669 71.1135C114.678 76.4353 109.203 69.7441 106.635 62.374C104.971 57.5988 105.806 53.175 106.431 50.7634C107.338 47.2586 111.605 46.9492 111.605 46.9492C111.605 46.9492 109.497 54.1601 112.191 61.5271C114.885 68.8971 118.669 71.1135 118.669 71.1135Z" fill="#231F20"/>
<path d="M148.504 45.5797C148.504 45.5797 151.495 45.4685 152.066 45.847C152.636 46.2284 152.066 46.832 152.066 46.832L149.182 46.2043L148.504 45.5767V45.5797Z" fill="#231F20"/>
<path d="M111.999 61.7193C111.903 61.2448 111.801 60.7733 111.725 60.2958C111.638 59.8213 111.56 59.3468 111.488 58.8692C111.428 58.5239 111.353 58.1785 111.314 57.8301C111.158 56.5988 111.086 55.3584 111.083 54.1181C111.068 53.5685 111.095 53.0159 111.095 52.4693C111.113 52.1179 111.122 51.7665 111.164 51.4151C111.188 51.2409 111.23 51.0667 111.284 50.8986C111.344 50.7304 111.404 50.5652 111.467 50.394C111.548 50.1868 111.563 50.2198 111.623 50.415C111.653 50.5111 111.701 50.6493 111.765 50.8145C111.792 50.8956 111.834 50.9857 111.855 51.0758C111.873 51.1659 111.885 51.262 111.885 51.3581C111.876 52.7396 111.891 54.1091 111.915 55.5176C111.927 56.3585 112.095 57.2234 112.23 58.0734C112.311 58.5389 112.392 59.0074 112.482 59.4729C112.587 59.9354 112.672 60.4039 112.789 60.8634C112.858 61.1487 112.93 61.431 112.99 61.7193L113.203 62.5723C113.422 63.4312 113.678 64.2901 113.954 65.1281C114.182 65.7768 114.443 66.3954 114.702 67.0201C114.759 67.1583 114.816 67.2904 114.864 67.4346C115.044 67.9632 115.065 68.1494 115.014 68.3025C115.002 68.3386 114.996 68.3806 114.981 68.4046C114.936 68.4827 114.78 68.3025 114.549 67.9511C114.464 67.819 114.38 67.6898 114.293 67.5577C114.209 67.4226 114.143 67.2814 114.068 67.1433C113.924 66.864 113.768 66.5816 113.636 66.2903C113.356 65.7107 113.092 65.113 112.852 64.5064C112.687 64.0499 112.536 63.5874 112.386 63.1249C112.248 62.6564 112.101 62.1939 111.975 61.7224L111.999 61.7163V61.7193Z" fill="#231F20"/>
<path d="M115.329 73.3418C115.329 73.3418 96.4809 79.5255 90.7296 87.8896C90.7296 87.8896 89.8737 89.0639 90.171 90.1211C90.3752 90.8419 92.3754 86.4871 99.376 82.1774C106.377 77.8677 115.329 73.3418 115.329 73.3418Z" fill="#231F20"/>
<path d="M91.7508 90.2646C91.7598 90.7632 90.6816 91.7272 90.4173 95.1269C90.108 99.1123 91.5616 101.953 91.5616 101.953L91.7508 90.2646Z" fill="#231F20"/>
<path d="M113.527 50.2891C113.17 49.7305 112.278 46.3938 111.617 47.3849C110.248 49.4391 110.713 53.4215 110.758 53.3224L113.527 50.2891Z" fill="#231F20"/>
<path d="M114.05 66.1359C114.05 66.1359 117.221 72.0193 118.351 71.5508C119.675 71.0012 116.957 64.6162 116.957 64.6162L114.05 66.1359Z" fill="#231F20"/>
<path d="M147.338 76.1167C147.596 75.6392 147.792 75.0055 147.855 74.4348C147.924 73.8522 147.876 73.2456 147.738 72.6419C147.461 71.4316 146.846 70.2513 146.143 69.1191C145.44 67.9808 144.632 66.8816 143.833 65.7494C143.434 65.1788 143.043 64.5961 142.686 63.9654C142.335 63.3348 141.998 62.656 141.872 61.8271C141.842 61.68 141.839 61.5208 141.839 61.3616C141.83 61.2054 141.854 61.0403 141.881 60.8781C141.932 60.5537 142.064 60.2294 142.239 59.9501C142.608 59.3855 143.071 59.0341 143.548 58.7367C144.509 58.1571 145.521 57.8388 146.527 57.5925C148.308 57.175 150.092 56.9948 151.867 56.8597C153.645 56.7336 155.417 56.6735 157.183 56.6254C158.949 56.5774 160.712 56.5504 162.466 56.4783C163.343 56.4422 164.217 56.3912 165.085 56.3311C165.949 56.2651 166.817 56.1689 167.628 55.9707C167.983 55.8806 168.337 55.7665 168.607 55.6013C168.742 55.5232 168.86 55.4211 168.911 55.34C168.962 55.262 168.989 55.1629 168.962 55.0698C168.938 54.9226 168.664 54.6643 168.361 54.4961C168.058 54.3159 167.709 54.1688 167.355 54.0396C165.925 53.5291 164.391 53.2348 162.874 52.9855C160.919 52.6761 158.934 52.4839 156.952 52.3338C154.969 52.1866 152.978 52.0995 151.011 52.0905C150.402 52.0965 150.137 52.0665 150.14 51.9734C150.146 51.8833 150.435 51.7301 150.96 51.5769C152.008 51.2526 153.984 50.9943 156.306 51.1295C158.36 51.2466 160.408 51.4478 162.454 51.7541C163.475 51.9103 164.496 52.0935 165.514 52.3278C166.535 52.574 167.55 52.8383 168.577 53.3339C168.836 53.463 169.094 53.6102 169.358 53.8174C169.49 53.9195 169.622 54.0456 169.749 54.2018C169.887 54.373 170.016 54.6163 170.064 54.8505C170.115 55.0938 170.097 55.343 170.025 55.5773C169.947 55.8025 169.8 56.0428 169.665 56.181C169.382 56.4843 169.085 56.6435 168.803 56.7786C168.241 57.0339 167.703 57.163 167.172 57.2742C166.64 57.3823 166.118 57.4574 165.595 57.5174C165.072 57.5775 164.553 57.6285 164.036 57.6586C163.517 57.6856 163 57.7066 162.484 57.7216C161.451 57.7517 160.42 57.7667 159.393 57.7757C156.934 57.8027 154.432 57.8568 151.939 58.052C150.693 58.1511 149.449 58.2863 148.233 58.4965C147.02 58.7127 145.81 58.989 144.749 59.4756C144.461 59.6107 144.182 59.7579 143.935 59.9351C143.686 60.1062 143.464 60.3105 143.311 60.5057C143.173 60.7159 143.059 60.9291 143.04 61.1874C143.019 61.4427 143.034 61.722 143.122 62.0133C143.275 62.5929 143.578 63.1846 143.92 63.7582C144.263 64.3318 144.65 64.8965 145.041 65.4611C145.822 66.5933 146.659 67.7105 147.386 68.9238C148.11 70.1312 148.759 71.4436 148.996 72.9092C149.146 73.8012 149.092 74.7682 148.825 75.6332C148.696 76.0686 148.524 76.5011 148.269 76.9125C148.14 77.1198 147.987 77.321 147.783 77.4982C147.581 77.6754 147.326 77.8285 147.038 77.8976C146.75 77.9697 146.449 77.9487 146.185 77.8766C145.927 77.7985 145.692 77.6874 145.488 77.5553C145.074 77.291 144.749 76.9666 144.449 76.6332C143.845 75.9695 143.374 75.2217 142.914 74.5069C141.548 72.3536 140.004 70.2993 138.208 68.4974C137.307 67.6024 136.358 66.7525 135.337 66.0077C134.316 65.2629 133.235 64.6081 132.103 64.0736C130.343 63.2356 128.457 62.7281 126.556 62.5839C124.651 62.4398 122.738 62.668 120.915 63.2116C120.714 63.2747 120.516 63.3378 120.318 63.3978C120.12 63.4639 119.927 63.545 119.732 63.6171C119.339 63.7552 118.963 63.9354 118.573 64.1006C117.14 64.7433 116.269 65.3139 115.612 65.6443C114.963 65.9896 114.542 66.1308 114.173 66.2179C114.005 66.2569 113.801 66.332 113.693 66.344C113.509 66.3621 113.656 66.1458 114.053 65.6803C114.443 65.2088 115.173 64.5961 116.209 63.9534C117.753 63.0164 119.453 62.2356 121.279 61.7821C123.096 61.3015 125.033 61.1574 126.952 61.3346C128.868 61.5358 130.766 62.0584 132.52 62.8843C133.406 63.2807 134.241 63.7732 135.061 64.2868C135.863 64.8244 136.65 65.389 137.379 66.0167C139.575 67.8547 141.431 70.0441 143.04 72.3686C143.248 72.6569 143.44 72.9512 143.632 73.2486L144.206 74.1315C144.557 74.6931 144.936 75.2337 145.347 75.7022C145.551 75.9395 145.767 76.1467 145.981 76.3209C146.191 76.4981 146.407 76.6182 146.554 76.6513C146.704 76.6843 146.756 76.6783 146.888 76.6002C147.017 76.5191 147.176 76.3239 147.308 76.0897L147.338 76.0987V76.1167Z" fill="#231F20"/>
<path d="M153.372 47.8556C153.249 47.7685 153.129 47.6754 152.993 47.6033L152.792 47.4862L152.579 47.3871C152.303 47.2489 151.969 47.1318 151.66 47.0267C151.429 46.9516 151.192 46.9126 150.957 46.8495C150.134 46.6242 149.26 46.5161 148.374 46.432C147.981 46.399 147.582 46.396 147.191 46.399C146.939 46.408 146.687 46.402 146.431 46.39C146.305 46.381 146.179 46.381 146.05 46.351C145.924 46.3179 145.798 46.2819 145.668 46.2458C145.509 46.1948 145.53 46.1167 145.665 45.9846C145.732 45.9185 145.828 45.8344 145.942 45.7473C145.999 45.7052 146.062 45.6542 146.128 45.6212C146.194 45.5941 146.263 45.5731 146.338 45.5641L146.729 45.516L146.924 45.492H147.119C147.38 45.483 147.642 45.486 147.903 45.492C148.425 45.51 148.954 45.5431 149.486 45.6452C150.116 45.7593 150.795 45.7893 151.444 45.9515C151.801 46.0386 152.15 46.1467 152.492 46.2699C152.66 46.3269 152.834 46.399 153.008 46.4741C153.183 46.5402 153.351 46.6333 153.516 46.7204C153.921 46.9486 154.309 47.2189 154.636 47.5583C155.156 48.0508 155.507 48.6995 155.747 49.3542C155.925 49.8678 156.081 50.3843 156.15 50.9189C156.168 51.0361 156.18 51.1532 156.174 51.2703C156.168 51.4896 156.135 51.6337 156.063 51.7298C156 51.8259 155.898 51.874 155.759 51.907C155.696 51.922 155.639 51.943 155.582 51.949C155.408 51.9701 155.204 51.7839 155.132 51.4986L155.048 51.1862C155.021 51.0811 154.985 50.982 154.97 50.8799C154.952 50.7778 154.925 50.6787 154.901 50.5796C154.88 50.4804 154.856 50.3813 154.825 50.2852C154.777 50.09 154.714 49.9038 154.648 49.7236C154.606 49.6365 154.588 49.5404 154.552 49.4503L154.444 49.186C154.207 48.6785 153.864 48.201 153.357 47.8736L153.369 47.8526L153.372 47.8556Z" fill="#231F20"/>
<path d="M150.339 43.5234C149.978 43.1239 149.516 42.8326 148.969 42.6194C148.768 42.5413 148.552 42.4993 148.338 42.4362C147.591 42.2049 146.792 42.0488 145.99 41.9467C145.632 41.9016 145.269 41.8926 144.912 41.8806L144.221 41.8626C144.107 41.8536 143.99 41.8596 143.876 41.8295C143.761 41.7965 143.647 41.7635 143.53 41.7274C143.386 41.6794 143.407 41.6133 143.53 41.4992C143.59 41.4421 143.68 41.367 143.785 41.2859C143.84 41.2469 143.897 41.1988 143.957 41.1718C144.017 41.1508 144.083 41.1358 144.149 41.1298C145.101 41.0367 146.065 41.0787 147.029 41.2649C147.603 41.382 148.215 41.4121 148.81 41.5592C149.453 41.7154 150.14 41.9677 150.705 42.3941C151.059 42.6464 151.363 42.9618 151.627 43.2951C152.023 43.8057 152.3 44.3823 152.555 44.9439C152.753 45.3794 152.984 45.7969 153.129 46.2443C153.162 46.3435 153.204 46.4366 153.219 46.5387C153.252 46.7309 153.252 46.86 153.216 46.9591C153.171 47.0612 153.102 47.1303 153.006 47.1934C152.96 47.2234 152.921 47.2564 152.882 47.2775C152.813 47.3135 152.738 47.2985 152.648 47.2504C152.558 47.2024 152.444 47.1213 152.372 47.0012L152.189 46.7399C152.129 46.6528 152.087 46.5597 152.032 46.4726L151.885 46.2053C151.834 46.1182 151.786 46.0281 151.75 45.938C151.588 45.5776 151.441 45.2112 151.264 44.8749C151.011 44.3643 150.696 43.9258 150.324 43.5474L150.342 43.5264L150.339 43.5234Z" fill="#231F20"/>
<path d="M132.817 39.4841C130.637 40.0877 128.493 40.8476 126.421 41.7846C126.042 41.9528 125.67 42.133 125.3 42.3252C124.931 42.5114 124.561 42.7006 124.195 42.8928C121.591 44.2172 119.09 45.7699 116.837 47.635C115.837 48.4579 114.894 49.3679 114.053 50.3319C113.503 50.9446 113.026 51.6173 112.533 52.269C112.059 52.9387 111.611 53.6175 111.137 54.2992C110.957 54.4974 110.858 54.5785 110.825 54.5545C110.788 54.5305 110.803 54.3983 110.8 54.1521C110.794 53.9028 110.828 53.5604 110.912 53.161C110.996 52.7586 111.179 52.3291 111.431 51.8906C111.536 51.6924 111.665 51.5152 111.783 51.326C111.906 51.1398 112.017 50.9446 112.158 50.7764C112.431 50.428 112.696 50.0706 112.987 49.7403L113.419 49.2387L113.873 48.7582C114.17 48.4308 114.495 48.1335 114.807 47.8272C116.077 46.6079 117.498 45.5687 118.972 44.6227C120.741 43.5025 122.573 42.3252 124.492 41.3822C125.541 40.8536 126.619 40.3881 127.703 39.9376C128.796 39.5111 129.892 39.0937 131.013 38.7483C132.388 38.3128 133.785 37.9404 135.193 37.6311C137.331 37.1806 139.518 36.9043 141.689 36.8142L142.323 36.7932C142.536 36.7872 142.737 36.7691 142.969 36.7842L143.308 36.7962L143.644 36.8442C143.873 36.8682 144.089 36.9433 144.308 36.9974C145.179 37.2797 145.945 37.8263 146.545 38.472C146.813 38.7543 147.065 39.0396 147.272 39.367C147.663 39.9646 147.849 40.3851 147.948 40.6974C148.044 41.0098 148.053 41.211 148.008 41.4002C147.99 41.4873 147.981 41.5894 147.951 41.6495C147.852 41.8537 147.449 41.4272 146.84 40.6674C146.624 40.3791 146.392 40.1088 146.158 39.8505C145.921 39.5952 145.693 39.3369 145.437 39.1177C144.936 38.6702 144.383 38.3368 143.794 38.1717L143.572 38.1086C143.497 38.0906 143.419 38.0846 143.344 38.0726C143.194 38.0395 143.038 38.0365 142.878 38.0305C142.737 38.0155 142.524 38.0305 142.344 38.0335L141.779 38.0485C141.025 38.0786 140.269 38.1296 139.515 38.2107C138.392 38.3278 137.268 38.49 136.154 38.7153C135.037 38.9255 133.929 39.2048 132.832 39.5111L132.82 39.4811L132.817 39.4841Z" fill="#231F20"/>
<path d="M111.885 57.6161C112.248 59.3701 112.726 61.112 113.32 62.8058C113.536 63.4245 113.804 64.0251 114.05 64.6288C114.486 65.6949 114.969 66.7431 115.54 67.7282C116.11 68.7042 116.753 69.6803 117.603 70.314C117.696 70.3861 117.792 70.4401 117.891 70.5002L118.038 70.5753C118.089 70.6023 118.101 70.6023 118.137 70.6173C118.198 70.6383 118.258 70.6564 118.321 70.6594C118.384 70.6594 118.444 70.6203 118.477 70.5693C118.513 70.5182 118.537 70.4581 118.552 70.3981C118.561 70.362 118.564 70.347 118.573 70.305C118.585 70.2509 118.591 70.1938 118.6 70.1368C118.627 69.9055 118.636 69.6593 118.636 69.416C118.627 68.1396 118.348 66.8422 118.21 65.5478C118.198 65.1333 118.282 65.1514 118.582 65.4337C118.732 65.5748 118.9 65.7971 119.069 66.0734C119.15 66.2145 119.24 66.3677 119.309 66.5359C119.375 66.7071 119.429 66.8902 119.471 67.0825C119.615 67.7702 119.726 68.464 119.771 69.1908C119.792 69.5572 119.801 69.9266 119.741 70.332C119.726 70.4461 119.717 70.5032 119.669 70.7074C119.651 70.7885 119.618 70.8666 119.591 70.9447C119.567 71.0258 119.534 71.0978 119.495 71.1669C119.351 71.4552 119.12 71.6775 118.831 71.7886C118.54 71.8937 118.222 71.8456 117.912 71.7495L117.681 71.6715C117.594 71.6504 117.567 71.6234 117.513 71.5994C117.414 71.5513 117.318 71.5033 117.23 71.4492C116.87 71.233 116.57 70.9807 116.296 70.7134C115.759 70.1758 115.335 69.5842 114.96 68.9775C114.086 67.5149 113.287 65.9773 112.66 64.3945C111.975 62.6556 111.428 60.8717 110.987 59.0637C110.716 57.9495 110.491 56.8263 110.314 55.6971C110.047 53.9822 109.903 52.2343 110.005 50.4894C110.047 49.8407 110.119 49.195 110.272 48.5493C110.353 48.2279 110.458 47.9036 110.602 47.5912C110.677 47.4351 110.761 47.2819 110.861 47.1317C110.906 47.0536 110.966 46.9846 111.02 46.9125C111.083 46.8194 111.182 46.7323 111.266 46.6422C111.335 46.5791 111.407 46.5221 111.491 46.477C111.903 46.2638 112.395 46.435 112.765 46.7323C113.299 47.2008 113.407 47.6062 113.458 47.8855C113.515 48.1618 113.464 48.339 113.383 48.4892C113.35 48.5553 113.326 48.6334 113.296 48.6724C113.245 48.7385 113.164 48.6724 113.014 48.5252C112.93 48.4562 112.858 48.3601 112.771 48.2489C112.69 48.1378 112.569 48.0237 112.464 47.9036C112.392 47.8135 112.314 47.7324 112.236 47.6633C112.197 47.6273 112.158 47.5972 112.116 47.5732C112.08 47.5462 112.077 47.5552 112.059 47.5462C112.002 47.5282 111.939 47.5402 111.918 47.5942C111.939 47.5762 111.798 47.7864 111.725 47.9336C111.65 48.1018 111.578 48.273 111.518 48.4592C111.395 48.8286 111.311 49.234 111.254 49.6545C111.143 50.4954 111.131 51.3934 111.179 52.2943C111.272 54.0573 111.53 55.8502 111.921 57.6131L111.891 57.6221L111.885 57.6161Z" fill="#231F20"/>
<path d="M73.9864 76.143C74.0976 75.9177 74.2267 75.6985 74.3558 75.4792C74.485 75.26 74.6111 75.0377 74.7493 74.8395L75.5662 73.6202L76.3831 72.4009C76.6503 71.9924 76.9657 71.617 77.254 71.2206L78.14 70.0523L78.5814 69.4697C78.7316 69.2775 78.8938 69.0943 79.05 68.9081C79.6836 68.1633 80.3083 67.4154 80.948 66.6796L82.3926 65.1089L83.1134 64.3221C83.3627 64.0668 83.6179 63.8205 83.8732 63.5743C87.4501 60.0634 91.3634 56.922 95.5079 54.135C97.3609 52.9217 99.2289 51.7023 101.16 50.6452L102.085 50.1226C102.394 49.9514 102.713 49.7953 103.028 49.6301C103.662 49.3117 104.289 48.9844 104.947 48.7111C105.602 48.4318 106.242 48.1284 106.926 47.9152L107.938 47.5848C108.107 47.5308 108.287 47.5038 108.461 47.4647C108.638 47.4317 108.809 47.3836 108.987 47.3626C109.428 47.2965 109.62 47.2845 109.617 47.3176C109.617 47.3536 109.419 47.4527 109.098 47.6629C108.446 48.0654 107.32 48.8672 105.893 49.567L104.947 50.0385C104.632 50.1977 104.325 50.3779 104.016 50.5461C103.397 50.8884 102.764 51.1978 102.154 51.5612C101.544 51.9186 100.917 52.2489 100.316 52.6273C99.7125 52.9997 99.1088 53.3721 98.4991 53.7325C96.0965 55.2432 93.742 56.8559 91.4445 58.5708C88.7085 60.6401 86.1076 63.1027 83.678 65.6285C80.9991 68.4005 78.5634 71.4128 76.4461 74.6323L75.9506 75.3711L75.7043 75.7405L75.4851 76.1159L75.2658 76.4913L75.0646 76.8788L74.8634 77.2662L74.6802 77.6656C74.1877 78.7288 73.7822 79.837 73.4338 80.9662C72.3977 84.3959 71.8181 87.9939 71.4967 91.5557C71.2565 94.3308 71.2204 97.0667 71.2475 99.8177C71.2535 100.424 71.2775 101.016 71.2805 101.626C71.2835 102.758 71.2865 103.503 71.2324 104.028C71.1634 104.554 71.0733 104.86 70.9411 105.11C70.8811 105.224 70.824 105.374 70.7699 105.44C70.6738 105.554 70.5717 105.383 70.4546 104.971C70.3405 104.56 70.1963 103.914 70.1453 103.076C69.938 100.593 69.923 98.0338 70.0041 95.439C70.0912 92.8441 70.3074 90.2103 70.6828 87.5854C70.9591 85.6363 71.3346 83.6872 71.8451 81.7621C72.1094 80.801 72.3917 79.843 72.7431 78.9C73.0915 77.9569 73.4759 77.0199 73.9564 76.1189L73.9864 76.1309V76.143Z" fill="#231F20"/>
<path d="M106.04 78.841C105.281 79.2524 104.515 79.6579 103.77 80.0964L102.647 80.7451L101.544 81.4268C101.277 81.595 101.01 81.7632 100.752 81.9404C100.493 82.1206 100.235 82.3008 99.9708 82.4749C99.0307 83.0726 98.1328 83.7213 97.2228 84.361C96.3368 85.0337 95.4448 85.6945 94.6039 86.4242C93.8321 87.0429 93.1383 87.7517 92.4295 88.4274C91.9971 88.8839 91.5856 89.3584 91.1411 89.8029C90.9159 90.0222 90.7117 90.2624 90.4894 90.4847C90.2732 90.7129 90.0239 90.9141 89.7897 91.1304C89.4863 91.3886 89.4503 91.2955 89.5464 90.9442C89.5945 90.767 89.6695 90.5207 89.7747 90.2294C89.8888 89.9441 90.054 89.6377 90.2702 89.3344C91.931 87.2892 93.9042 85.5233 96.0455 83.9886C97.3219 83.0636 98.6163 82.0605 99.9467 81.1625C100.68 80.67 101.433 80.2045 102.178 79.733C102.941 79.2855 103.689 78.82 104.461 78.3905L105.881 77.5946L107.317 76.8288C108.764 76.0539 110.254 75.3422 111.708 74.6064C112.846 74.0508 113.927 73.4291 115.053 72.8795C115.302 72.7594 115.54 72.6272 115.795 72.5161C116.753 72.1287 117.092 72.0926 117.411 72.2788C117.483 72.3209 117.57 72.3569 117.624 72.408C117.801 72.5762 117.492 72.9185 116.846 73.312C115.888 73.8946 114.879 74.4202 113.84 74.9277C112.804 75.4353 111.756 75.9518 110.701 76.4654C109.924 76.8558 109.146 77.2462 108.365 77.6367C107.596 78.0481 106.812 78.4355 106.055 78.865L106.04 78.841Z" fill="#231F20"/>
<path d="M90.7418 98.5064C90.7418 97.7556 90.7628 97.0048 90.7988 96.254C90.8108 95.9807 90.7928 95.7074 90.8198 95.4341C90.8829 94.473 91.0331 93.518 91.1892 92.5689C91.2613 92.1485 91.3034 91.722 91.3875 91.3076C91.4385 91.0403 91.4896 90.773 91.5676 90.5087C91.6427 90.2444 91.7509 89.9891 91.853 89.7369C91.922 89.5807 91.9791 89.6197 92.0362 89.7789C92.0902 89.9381 92.1773 90.2234 92.1803 90.5327C92.1863 91.6259 92.0241 92.6771 91.874 93.7612C91.8259 94.0856 91.8109 94.419 91.7929 94.7523C91.7839 95.0887 91.7869 95.4251 91.7719 95.7584C91.7539 96.4942 91.7358 97.23 91.7508 97.9658L91.7659 98.6476L91.7989 99.3263C91.8349 100.011 91.88 100.702 91.9851 101.378C92.0782 101.9 92.2134 102.402 92.3455 102.906C92.3755 103.017 92.4086 103.125 92.4236 103.24C92.4897 103.663 92.4476 103.813 92.2674 103.951C92.2254 103.984 92.1863 104.02 92.1443 104.044C92.0061 104.123 91.8319 103.981 91.6758 103.684C91.2133 102.801 91 101.789 90.8799 100.777C90.7898 100.023 90.7297 99.2632 90.7147 98.5064H90.7418Z" fill="#231F20"/>
<path d="M106.088 63.5136C105.725 62.4324 105.431 61.3302 105.226 60.213C105.148 59.8045 105.052 59.4021 104.998 58.9907C104.815 57.5401 104.77 56.0715 104.899 54.6179C104.917 54.2965 104.968 53.9722 104.992 53.6508C105.046 53.3295 105.082 53.0081 105.151 52.6958C105.226 52.2903 105.326 51.8849 105.44 51.4885C105.587 51.098 105.776 50.7256 105.989 50.3713C106.121 50.149 106.175 50.2151 106.209 50.4553C106.224 50.5755 106.239 50.7407 106.245 50.9329C106.251 51.1251 106.272 51.3503 106.245 51.5726C106.079 52.3504 105.977 53.1313 105.899 53.9181C105.8 54.705 105.755 55.5039 105.737 56.3147C105.713 57.2878 105.89 58.2909 106.07 59.267C106.269 60.3451 106.533 61.4143 106.857 62.4654C107.055 63.1141 107.29 63.7538 107.542 64.3815C107.935 65.3306 108.374 66.2706 108.908 67.1415C109.323 67.8173 109.83 68.4089 110.329 68.9945C110.437 69.1267 110.56 69.2348 110.671 69.367C111.089 69.8355 111.188 70.0097 111.107 70.298C111.089 70.364 111.08 70.4361 111.053 70.4932C110.972 70.6824 110.647 70.6283 110.245 70.313C109.662 69.8415 109.113 69.2949 108.656 68.6732C108.197 68.0545 107.791 67.3878 107.428 66.7031C106.887 65.6849 106.446 64.6128 106.055 63.5316L106.079 63.5196L106.088 63.5136Z" fill="#231F20"/>
<path d="M107.785 55.7991C107.887 55.7029 107.992 55.6068 108.095 55.5137C108.131 55.4807 108.161 55.4357 108.2 55.4026C108.335 55.2855 108.488 55.1834 108.632 55.0783C108.698 55.0302 108.755 54.9762 108.812 54.9221C108.884 54.853 108.956 54.7719 109.068 54.7449C109.101 54.7359 109.143 54.808 109.167 54.8891C109.191 54.9732 109.209 55.0632 109.173 55.1023C109.044 55.2344 108.908 55.3696 108.74 55.4777C108.641 55.5438 108.566 55.6459 108.482 55.73C108.389 55.8231 108.293 55.9192 108.197 56.0123C108.14 56.0723 108.083 56.1294 108.028 56.1925C107.95 56.2886 107.857 56.3757 107.791 56.4808C107.74 56.5619 107.707 56.652 107.665 56.7331C107.656 56.7511 107.65 56.7691 107.638 56.7871C107.599 56.8502 107.566 56.8562 107.479 56.8352L107.419 56.8202C107.356 56.7991 107.32 56.7451 107.32 56.676C107.326 56.5739 107.341 56.4718 107.368 56.3757C107.398 56.2796 107.452 56.2015 107.503 56.1174C107.575 55.9943 107.677 55.8922 107.773 55.79L107.782 55.796L107.785 55.7991Z" fill="#231F20"/>
<path d="M108.779 58.9282C108.842 58.8651 108.92 58.8141 108.99 58.757C109.014 58.736 109.035 58.709 109.059 58.6909C109.152 58.6249 109.248 58.5558 109.338 58.4897C109.377 58.4597 109.413 58.4236 109.449 58.3876C109.494 58.3426 109.533 58.2915 109.596 58.2675C109.635 58.2525 109.734 58.4357 109.692 58.4927C109.614 58.5918 109.53 58.6819 109.422 58.754C109.356 58.796 109.317 58.8681 109.266 58.9252C109.209 58.9853 109.152 59.0483 109.092 59.1114C109.056 59.1474 109.017 59.1865 108.984 59.2255C108.929 59.2856 108.875 59.3426 108.833 59.4087C108.8 59.4598 108.788 59.5258 108.767 59.5829C108.761 59.5949 108.758 59.6069 108.749 59.6189C108.719 59.658 108.689 59.658 108.611 59.6189L108.557 59.5919C108.5 59.5589 108.464 59.5138 108.461 59.4658C108.446 59.3216 108.524 59.2255 108.59 59.1264C108.644 59.0543 108.707 58.9883 108.767 58.9222L108.773 58.9282H108.779Z" fill="#231F20"/>
<path d="M109.767 64.6827C109.848 64.5806 109.93 64.4785 110.02 64.3824C110.05 64.3463 110.071 64.3043 110.104 64.2712C110.224 64.1541 110.35 64.043 110.47 63.9289C110.521 63.8778 110.566 63.8207 110.605 63.7607C110.656 63.6856 110.695 63.5955 110.794 63.5625C110.855 63.5414 111.128 63.8808 111.077 63.9619C110.978 64.106 110.867 64.2382 110.713 64.3463C110.62 64.4094 110.581 64.5175 110.515 64.6046C110.443 64.7007 110.368 64.7968 110.296 64.8899C110.251 64.95 110.206 65.01 110.167 65.0731C110.104 65.1662 110.044 65.2623 109.999 65.3644C109.966 65.4455 109.96 65.5356 109.942 65.6197C109.939 65.6377 109.939 65.6587 109.933 65.6768C109.909 65.7428 109.869 65.7488 109.74 65.7158L109.653 65.6918C109.557 65.6617 109.488 65.6017 109.476 65.5386C109.446 65.3494 109.476 65.1692 109.548 65.01C109.605 64.8929 109.68 64.7848 109.752 64.6737L109.764 64.6797L109.767 64.6827Z" fill="#231F20"/>
<path d="M121.924 33.8154C122.891 35.0107 121.536 36.0469 120.518 35.7766C118.872 35.3411 119.38 33.7133 121.077 33.7313C121.296 33.7313 121.821 33.6893 121.924 33.8154Z" fill="#231F20"/>
<path opacity="0.5" d="M137.803 25.8713C139.046 26.6431 138.151 27.9946 137.151 28.0727C135.535 28.1958 135.484 26.5741 137.013 26.0605C137.211 25.9944 137.671 25.7902 137.8 25.8713H137.803Z" fill="#231F20"/>
<path opacity="0.5" d="M124.116 87.4377C125.36 88.2095 124.465 89.561 123.465 89.6391C121.849 89.7622 121.798 88.1405 123.326 87.6269C123.525 87.5608 123.984 87.3566 124.113 87.4377H124.116Z" fill="#231F20"/>
<path opacity="0.3" d="M233.708 116.386C233.708 116.386 236.777 117.224 238.36 120.149C239.942 123.074 235.621 133.369 231.59 137.189C227.887 140.694 225.596 140.995 225.596 140.995C225.596 140.995 221.896 138.736 221.676 136.841C221.457 134.946 222.298 138.865 226.626 134.024C230.954 129.18 233.708 121.581 233.708 118.984V116.389V116.386Z" fill="#231F20"/>
<path d="M243.862 127.807C243.285 126.918 242.679 126.044 242.045 125.188C241.817 124.872 241.567 124.575 241.336 124.266C240.528 123.161 239.675 122.088 238.759 121.07C238.36 120.614 237.919 120.19 237.486 119.773C237.195 119.521 236.906 119.259 236.615 119.013L236.18 118.632C236.032 118.508 235.876 118.403 235.723 118.283C235.534 118.136 235.576 118.112 235.786 118.163C235.891 118.187 236.038 118.232 236.216 118.292C236.393 118.352 236.576 118.457 236.777 118.575C237.462 119.022 238.039 119.59 238.624 120.139C238.91 120.422 239.186 120.713 239.465 121.004C239.738 121.298 240 121.608 240.261 121.914C240.877 122.656 241.558 123.392 242.177 124.158C242.853 125.005 243.487 125.884 244.111 126.77C244.487 127.32 244.862 127.873 245.225 128.431C245.778 129.278 246.304 130.146 246.814 131.008C247.006 131.347 247.208 131.678 247.412 132.005L247.982 133.014C248.067 133.161 248.154 133.306 248.214 133.471C248.454 134.065 248.478 134.276 248.376 134.465C248.352 134.507 248.334 134.561 248.304 134.591C248.211 134.693 248.003 134.501 247.751 134.116C247.379 133.546 247.024 132.951 246.67 132.345C246.295 131.747 245.928 131.137 245.559 130.525C245.292 130.065 245.006 129.615 244.721 129.161C244.442 128.705 244.144 128.26 243.844 127.816L243.859 127.804L243.862 127.807Z" fill="#231F20"/>
<path d="M212.808 114.312C212.808 114.312 213.655 114.651 214.135 115.414C214.457 115.927 210.964 115.894 210.964 115.894L212.808 114.312Z" fill="#231F20"/>
<path d="M210.673 110.742C210.673 110.778 210.73 111.541 211.039 111.709C211.348 111.877 211.943 112.803 211.943 112.803L208.636 113.403C208.636 113.403 210.219 111.622 210.291 111.226C210.363 110.829 210.673 110.739 210.673 110.739V110.742Z" fill="#231F20"/>
<path d="M202.504 110.378C202.504 110.378 208.438 107.057 210.291 109.489L209.555 109.685C209.555 109.685 204.84 109.934 204.75 110.195C204.66 110.456 202.507 110.378 202.507 110.378H202.504Z" fill="#231F20"/>
<path d="M231.816 125.603C231.639 126.014 231.467 126.429 231.263 126.825C231.068 127.227 230.873 127.63 230.663 128.023C230.512 128.312 230.395 128.618 230.233 128.9C229.68 129.906 229.068 130.879 228.443 131.837C228.161 132.261 227.882 132.687 227.59 133.099C227.224 133.633 226.812 134.147 226.278 134.54C226.113 134.663 226.122 134.633 226.167 134.45C226.188 134.36 226.218 134.228 226.248 134.066C226.287 133.913 226.35 133.75 226.437 133.588C226.518 133.45 226.584 133.297 226.656 133.153C226.728 133.009 226.818 132.877 226.899 132.738C227.074 132.471 227.221 132.183 227.386 131.906C227.563 131.639 227.74 131.372 227.912 131.096C228.083 130.822 228.272 130.555 228.443 130.279C228.65 129.948 228.846 129.603 229.023 129.243C229.194 128.882 229.368 128.519 229.539 128.158L230.098 126.966L230.63 125.759C230.84 125.26 231.056 124.762 231.239 124.254C231.53 123.488 231.798 122.707 231.99 121.921C232.068 121.614 232.104 121.305 232.152 120.999C232.188 120.692 232.215 120.389 232.26 120.089C232.272 119.956 232.269 119.827 232.284 119.698C232.296 119.578 232.314 119.476 232.329 119.392C232.338 119.311 232.35 119.248 232.377 119.191C232.437 119.079 232.513 119.01 232.615 118.944C232.663 118.914 232.708 118.875 232.75 118.857C232.825 118.824 232.894 118.857 232.969 118.947C233.044 119.04 233.137 119.2 233.17 119.413C233.236 120.017 233.281 120.65 233.17 121.254C233.077 121.861 232.921 122.452 232.756 123.044C232.492 123.912 232.182 124.768 231.846 125.606L231.822 125.597L231.816 125.603Z" fill="#231F20"/>
<path d="M231.738 118.854C231.632 118.602 232.762 115.917 233.17 116.455C234.417 118.095 233.032 121.251 233.032 121.251L231.738 118.854Z" fill="#231F20"/>
<path d="M224.968 129.404C224.638 129.572 220.677 135.083 221.632 136.273C223.109 138.111 226.845 133.369 226.845 133.369L224.968 129.404Z" fill="#231F20"/>
<path d="M181.078 106.074C180.643 105.918 180.204 105.726 179.772 105.432C179.559 105.279 179.336 105.107 179.141 104.873C178.895 104.588 178.733 104.203 178.679 103.831C178.673 103.678 178.679 103.522 178.721 103.374C178.742 103.299 178.775 103.23 178.814 103.164C178.847 103.095 178.895 103.032 178.943 102.972C178.988 102.909 179.042 102.855 179.102 102.801C179.156 102.744 179.219 102.696 179.288 102.654L179.487 102.519L179.664 102.425C180.057 102.233 180.421 102.122 180.784 102.02C181.508 101.816 182.22 101.702 182.931 101.597C183.76 101.473 184.583 101.344 185.409 101.269C188.319 101.008 191.22 100.912 194.119 100.81C195.404 100.765 196.695 100.696 197.969 100.636C198.786 100.593 199.606 100.551 200.425 100.509C200.834 100.488 201.245 100.482 201.654 100.491C202.065 100.497 202.474 100.491 202.885 100.584C203.143 100.663 203.258 100.72 203.252 100.768C203.248 100.819 203.125 100.879 202.918 101.023C202.501 101.32 201.714 101.669 200.774 101.747C199.104 101.849 197.437 101.951 195.767 102.014C194.098 102.068 192.425 102.107 190.743 102.14C188.731 102.179 186.652 102.41 184.625 102.651C183.688 102.765 182.748 102.894 181.841 103.08C181.391 103.173 180.937 103.275 180.532 103.42C180.43 103.456 180.334 103.495 180.24 103.534L180.141 103.582L180.078 103.621C179.994 103.672 179.922 103.768 179.949 103.873C179.964 103.948 179.994 104.02 180.036 104.086C180.054 104.107 180.099 104.176 180.144 104.221C180.183 104.272 180.243 104.321 180.291 104.369C180.742 104.735 181.385 104.975 182.024 105.158C182.67 105.339 183.346 105.468 184.025 105.567C186.088 105.858 188.208 105.948 190.295 105.933C191.92 105.918 193.512 105.792 195.116 105.675C195.47 105.648 195.812 105.612 196.17 105.588C196.831 105.546 197.269 105.537 197.578 105.579C197.734 105.603 197.858 105.639 197.96 105.684C198.062 105.735 198.146 105.798 198.221 105.864C198.29 105.924 198.377 105.978 198.419 106.029C198.488 106.116 198.389 106.204 198.155 106.33C197.921 106.459 197.548 106.546 197.065 106.609C194.191 106.969 191.133 107.132 188.043 107.053C186.896 107.023 185.742 106.957 184.583 106.825C183.424 106.687 182.259 106.51 181.078 106.113L181.084 106.083L181.078 106.074Z" fill="#231F20"/>
<path d="M199.906 114.345C201.684 114.504 203.501 114.399 205.207 113.903C205.831 113.723 206.423 113.462 206.997 113.183C207.504 112.936 207.985 112.645 208.423 112.315C208.853 111.981 209.255 111.597 209.492 111.173C209.61 110.966 209.679 110.75 209.676 110.579C209.676 110.537 209.667 110.498 209.664 110.459C209.646 110.426 209.649 110.383 209.625 110.353C209.607 110.32 209.592 110.284 209.559 110.254L209.519 110.206C209.519 110.206 209.492 110.185 209.477 110.176C209.363 110.08 209.102 110.014 208.844 109.987C208.579 109.957 208.294 109.963 208.009 109.975C206.988 110.035 205.949 110.293 204.933 110.534C204.279 110.696 203.63 110.888 202.978 111.071L201.996 111.345L201.504 111.477C201.336 111.513 201.167 111.543 200.993 111.558C200.546 111.558 200.609 111.564 200.897 111.293C201.176 110.999 201.735 110.585 202.477 110.299C203.132 110.047 203.795 109.807 204.468 109.588C205.141 109.371 205.822 109.161 206.537 109.041C207.252 108.915 207.973 108.81 208.778 108.852C208.88 108.858 208.979 108.864 209.087 108.882C209.189 108.894 209.3 108.915 209.411 108.942C209.631 108.993 209.877 109.074 210.126 109.251C210.258 109.341 210.351 109.446 210.441 109.552C210.529 109.663 210.607 109.792 210.664 109.921C210.784 110.191 210.805 110.48 210.79 110.738C210.715 111.348 210.447 111.807 210.159 112.197C209.865 112.588 209.528 112.924 209.174 113.225C208.453 113.819 207.651 114.273 206.82 114.624C204.985 115.375 203.014 115.663 201.077 115.639C200.477 115.624 199.897 115.597 199.284 115.519C198.675 115.432 198.077 115.279 197.5 115.042C197.281 114.951 197.068 114.846 196.861 114.723C196.759 114.663 196.653 114.594 196.554 114.525C196.461 114.462 196.365 114.39 196.272 114.318C195.9 114.023 195.551 113.672 195.296 113.24C195.038 112.813 194.888 112.291 194.912 111.78C194.936 111.269 195.101 110.792 195.326 110.374C195.674 109.717 196.146 109.185 196.632 108.69C197.125 108.197 197.654 107.753 198.209 107.347C198.449 107.161 198.69 106.993 198.945 106.825C199.924 106.263 200.29 106.191 200.621 106.302C200.693 106.323 200.777 106.329 200.825 106.35C200.969 106.395 200.699 106.84 200.065 107.323C199.831 107.503 199.609 107.705 199.371 107.882C199.134 108.059 198.903 108.242 198.672 108.428C198.215 108.804 197.765 109.188 197.368 109.603C196.975 110.017 196.611 110.459 196.386 110.909C196.155 111.363 196.08 111.786 196.17 112.152C196.233 112.429 196.389 112.708 196.635 112.972C196.759 113.104 196.897 113.231 197.053 113.351C197.128 113.411 197.218 113.474 197.302 113.531C197.377 113.582 197.455 113.63 197.536 113.678C197.867 113.864 198.254 114.011 198.654 114.12C199.062 114.228 199.459 114.297 199.903 114.321V114.351L199.906 114.345Z" fill="#231F20"/>
<path d="M204.327 118.004C205.513 117.824 206.693 117.506 207.816 117.043C208.225 116.875 208.612 116.659 209.003 116.458C209.693 116.106 210.36 115.698 210.934 115.214C211.219 114.974 211.48 114.707 211.679 114.431C211.784 114.295 211.856 114.154 211.91 114.019C211.952 113.887 211.967 113.77 211.946 113.671C211.904 113.506 211.676 113.298 211.426 113.223C211.168 113.142 210.853 113.157 210.54 113.223C210.135 113.313 209.733 113.49 209.339 113.683C209.24 113.731 209.141 113.779 209.045 113.833C208.943 113.875 208.841 113.923 208.738 113.968L208.429 114.109C208.324 114.154 208.21 114.187 208.099 114.226C207.804 114.301 207.837 114.286 207.952 114.028C208.06 113.764 208.291 113.274 208.759 112.953C209.186 112.692 209.639 112.451 210.162 112.289C210.291 112.247 210.426 112.211 210.57 112.187C210.709 112.154 210.859 112.142 211.012 112.133C211.159 112.115 211.33 112.142 211.489 112.151C211.655 112.187 211.826 112.217 211.988 112.289C212.153 112.364 212.312 112.442 212.451 112.562C212.523 112.623 212.592 112.665 212.658 112.743C212.724 112.821 212.79 112.899 212.85 112.983C212.904 113.076 212.952 113.175 212.994 113.274C213.027 113.376 213.051 113.481 213.072 113.587C213.096 113.794 213.09 113.998 213.051 114.175C212.886 114.884 212.502 115.307 212.117 115.674C211.186 116.515 210.183 117.212 209.099 117.743C207.91 118.317 206.66 118.734 205.381 119.008C204.594 119.176 203.792 119.284 202.99 119.332C202.384 119.368 201.768 119.374 201.137 119.284C200.512 119.194 199.894 119.011 199.329 118.698C198.888 118.467 198.482 118.149 198.152 117.749C197.819 117.356 197.581 116.863 197.488 116.341C197.47 116.226 197.458 116.112 197.446 115.998C197.428 115.884 197.425 115.767 197.437 115.653C197.455 115.437 197.488 115.262 197.542 115.127C197.59 114.989 197.629 114.878 197.689 114.797C197.813 114.635 197.927 114.563 198.062 114.524C198.125 114.506 198.188 114.479 198.242 114.479C198.422 114.473 198.455 114.818 198.482 115.301C198.509 116.022 198.717 116.626 199.134 117.082C199.338 117.314 199.584 117.524 199.885 117.677C200.179 117.836 200.506 117.965 200.858 118.037C201.38 118.158 201.915 118.179 202.534 118.158C203.131 118.14 203.735 118.073 204.33 117.971L204.336 118.001L204.327 118.004Z" fill="#231F20"/>
<path d="M206.588 120.945C207.69 120.68 208.79 120.323 209.841 119.872C210.225 119.707 210.586 119.497 210.952 119.311C211.595 118.974 212.225 118.605 212.757 118.157C213.289 117.719 213.724 117.166 213.73 116.629C213.73 116.569 213.715 116.509 213.709 116.449C213.703 116.392 213.664 116.316 213.661 116.292C213.64 116.214 213.562 116.16 213.484 116.142C213.439 116.13 213.43 116.133 213.349 116.121C213.28 116.121 213.213 116.106 213.141 116.115C212.997 116.115 212.847 116.136 212.697 116.157C212.309 116.223 211.925 116.353 211.556 116.506C211.183 116.659 210.841 116.851 210.459 117.016C210.321 117.046 210.243 117.046 210.219 117.016C210.195 116.983 210.213 116.911 210.237 116.758C210.258 116.599 210.342 116.431 210.459 116.223C210.589 116.034 210.778 115.854 211.015 115.722C211.439 115.488 211.886 115.304 212.373 115.181C212.613 115.118 212.868 115.076 213.144 115.067C213.21 115.061 213.289 115.067 213.361 115.067C213.436 115.067 213.496 115.07 213.601 115.091C213.718 115.115 213.835 115.121 213.925 115.172C214.018 115.22 214.129 115.241 214.208 115.313C214.379 115.434 214.517 115.593 214.616 115.782C214.637 115.833 214.658 115.884 214.679 115.935L214.721 116.046C214.754 116.118 214.76 116.202 214.781 116.28C214.796 116.362 214.814 116.44 214.82 116.521V116.764C214.826 116.929 214.781 117.079 214.754 117.235C214.715 117.386 214.658 117.521 214.598 117.659C214.526 117.779 214.457 117.905 214.376 118.016C214.214 118.236 214.039 118.425 213.853 118.593C213.409 118.992 212.949 119.329 212.475 119.644C212 119.956 211.514 120.236 211.012 120.473C209.91 120.993 208.778 121.413 207.618 121.749C206.904 121.954 206.18 122.128 205.432 122.236C205.15 122.275 204.849 122.302 204.549 122.293C204.264 122.284 203.978 122.263 203.693 122.227C203.125 122.155 202.552 122.041 202.005 121.812C201.585 121.632 201.173 121.392 200.834 121.059C200.495 120.734 200.236 120.338 200.038 119.932C199.954 119.752 199.87 119.578 199.804 119.392C199.579 118.701 199.597 118.473 199.786 118.266C199.825 118.221 199.861 118.163 199.9 118.133C200.02 118.031 200.272 118.266 200.462 118.722C200.756 119.392 201.095 120.023 201.567 120.419C201.801 120.602 202.074 120.749 202.384 120.854C202.69 120.963 203.02 121.062 203.372 121.119C203.63 121.164 203.9 121.194 204.171 121.212C204.306 121.221 204.444 121.227 204.582 121.23C204.705 121.23 204.813 121.23 204.945 121.215C205.462 121.17 206.03 121.05 206.579 120.908L206.588 120.933V120.945Z" fill="#231F20"/>
<path d="M212.502 122.522C213.186 122.443 213.88 122.335 214.565 122.173C214.817 122.116 215.057 122.02 215.307 121.957C216.19 121.729 217.067 121.458 217.929 121.14C218.313 121.002 218.685 120.831 219.049 120.65C219.166 120.593 219.28 120.53 219.394 120.47L219.749 120.308C219.869 120.26 219.986 120.2 220.112 120.164C220.241 120.131 220.37 120.095 220.499 120.062C220.665 120.023 220.686 120.098 220.628 120.275C220.601 120.365 220.553 120.485 220.49 120.62C220.457 120.687 220.424 120.762 220.379 120.825C220.331 120.882 220.277 120.939 220.214 120.987L219.878 121.233C219.764 121.311 219.64 121.374 219.523 121.44C219.283 121.572 219.04 121.696 218.79 121.813C218.541 121.927 218.292 122.041 218.034 122.134C217.772 122.224 217.511 122.305 217.241 122.377C216.601 122.549 215.976 122.828 215.325 123.014C214.61 123.218 213.883 123.383 213.147 123.504C212.694 123.573 212.234 123.621 211.772 123.651C211.072 123.696 210.363 123.663 209.664 123.567C209.12 123.495 208.57 123.38 208.051 123.134C207.94 123.077 207.823 123.029 207.723 122.948C207.627 122.876 207.552 122.813 207.495 122.753C207.438 122.696 207.408 122.627 207.384 122.573C207.339 122.461 207.342 122.371 207.375 122.266C207.39 122.218 207.402 122.17 207.423 122.131C207.495 122.005 207.714 122.029 207.988 122.125C208.778 122.422 209.576 122.543 210.465 122.603C211.12 122.636 211.808 122.597 212.496 122.497L212.502 122.525V122.522Z" fill="#231F20"/>
<path d="M205.979 92.4403C206.901 93.8518 207.934 95.1522 209.171 96.2814C210.396 97.4167 211.769 98.4048 213.217 99.3057C214.271 99.9665 215.376 100.561 216.466 101.201C217.424 101.765 218.388 102.339 219.328 102.955C220.268 103.57 221.184 104.237 222.07 104.934C222.962 105.628 223.788 106.399 224.605 107.18C224.995 107.589 225.404 107.979 225.77 108.409L226.332 109.042L226.863 109.7C228.113 111.262 229.218 112.944 230.173 114.673C230.795 115.782 231.356 116.923 231.867 118.085C232.131 118.665 232.335 119.265 232.561 119.857C232.675 120.151 232.774 120.455 232.867 120.758C232.957 121.061 233.017 121.377 233.08 121.689C233.146 122.083 233.155 122.26 233.11 122.263C233.062 122.266 232.951 122.101 232.738 121.827C232.278 121.284 231.612 120.245 231.029 118.944C230.02 116.626 228.831 114.394 227.419 112.316C227.083 111.784 226.689 111.295 226.326 110.781C225.929 110.295 225.554 109.79 225.127 109.328C224.305 108.376 223.419 107.475 222.455 106.652C220.166 104.646 217.352 103.129 214.613 101.534C213.108 100.654 211.595 99.7412 210.18 98.666C209.465 98.1375 208.793 97.5518 208.141 96.9452C207.507 96.3175 206.886 95.6748 206.342 94.969C204.97 93.2601 203.885 91.3621 202.912 89.44C202.543 88.7132 202.191 87.9744 201.84 87.2446C201.666 86.8812 201.492 86.5148 201.309 86.1634C201.125 85.815 200.933 85.4607 200.717 85.1844C200.663 85.1153 200.636 85.0912 200.588 85.0492C200.546 85.0102 200.492 84.9861 200.438 84.9741C200.323 84.9711 200.215 85.0282 200.125 85.0973C199.885 85.2835 199.666 85.6078 199.51 85.9412C199.188 86.6229 199.032 87.4008 198.975 88.1726C198.891 89.3799 199.05 90.5932 199.398 91.7375C199.747 92.8847 200.272 93.9689 200.942 94.96C201.086 95.1822 201.242 95.3895 201.402 95.5967C201.555 95.8069 201.732 96.0021 201.897 96.2094C203.213 97.675 203.672 98.1164 203.846 98.5879C203.888 98.6931 203.96 98.8132 203.978 98.8883C204.005 99.0114 203.84 98.9694 203.492 98.8042C203.315 98.7261 203.101 98.603 202.864 98.4318C202.624 98.2636 202.345 98.0624 202.059 97.8011C200.378 96.2604 199.005 94.2032 198.35 91.8456C198.017 90.6713 197.87 89.431 197.942 88.1786C197.981 87.5509 198.077 86.9232 198.266 86.2956C198.362 85.9832 198.473 85.6709 198.636 85.3615C198.798 85.0552 198.978 84.7459 199.272 84.4576C199.32 84.4035 199.386 84.3524 199.447 84.3014C199.531 84.2413 199.612 84.1572 199.711 84.1182L199.999 83.98C200.098 83.944 200.2 83.929 200.302 83.902L200.378 83.8839L200.396 83.8779C200.402 83.8929 200.408 83.8809 200.414 83.8839H200.453C200.504 83.8839 200.558 83.8749 200.609 83.8809C200.711 83.905 200.813 83.926 200.906 83.971C201.101 84.0461 201.269 84.1813 201.426 84.3284C201.444 84.3464 201.465 84.3645 201.489 84.3795L201.534 84.4305L201.606 84.5116C201.657 84.5687 201.69 84.6167 201.735 84.6708C201.822 84.7759 201.882 84.878 201.951 84.9831C202.08 85.1874 202.198 85.3886 202.309 85.5898C202.75 86.3857 203.117 87.1695 203.501 87.9474C204.264 89.5001 205.072 91.0077 206.009 92.4222L205.985 92.4433L205.979 92.4403Z" fill="#231F20"/>
<path d="M224.437 129.504C224.317 129.24 224.175 128.984 224.052 128.72C223.914 128.462 223.779 128.204 223.632 127.951C223.521 127.768 223.389 127.6 223.274 127.417C222.884 126.768 222.458 126.131 221.992 125.522C221.788 125.248 221.548 125.005 221.322 124.753C221.022 124.438 220.698 124.146 220.533 123.699C220.49 123.552 220.545 123.525 220.728 123.506C220.926 123.476 221.229 123.479 221.449 123.621C222.181 124.167 222.767 124.87 223.265 125.648C223.56 126.116 223.956 126.531 224.278 126.993C224.629 127.504 224.953 128.032 225.251 128.579C225.431 128.915 225.599 129.258 225.764 129.6C226.01 130.123 226.233 130.654 226.455 131.18C226.632 131.585 226.836 131.973 227.017 132.378C227.056 132.468 227.089 132.555 227.113 132.651C227.209 133 227.131 133.144 226.947 133.279C226.902 133.309 226.863 133.345 226.818 133.369C226.674 133.447 226.485 133.351 226.302 133.144C226.059 132.826 225.86 132.489 225.68 132.144C225.494 131.802 225.314 131.453 225.161 131.096C225.043 130.831 224.929 130.564 224.803 130.3C224.686 130.033 224.554 129.774 224.419 129.513L224.443 129.498L224.437 129.504Z" fill="#231F20"/>
<path d="M225.494 134.192C226.722 132.955 227.797 131.498 228.74 129.973C229.086 129.414 229.386 128.828 229.701 128.252C230.813 126.218 231.786 124.086 232.464 121.867C232.759 120.882 232.978 119.867 233.068 118.869C233.119 118.233 233.113 117.584 232.966 117.016C232.927 116.878 232.891 116.737 232.843 116.617C232.801 116.533 232.819 116.539 232.768 116.512C232.711 116.5 232.575 116.521 232.443 116.569C232.311 116.62 232.179 116.701 232.059 116.797C231.909 116.917 231.843 116.974 231.813 116.953C231.786 116.932 231.792 116.824 231.858 116.638C231.933 116.455 232.026 116.185 232.341 115.899L232.374 115.872C232.38 115.851 232.395 115.854 232.407 115.842L232.488 115.8C232.539 115.77 232.609 115.749 232.681 115.731C232.747 115.71 232.843 115.71 232.927 115.707C233.02 115.719 233.122 115.731 233.212 115.776C233.407 115.854 233.552 116.001 233.651 116.14L233.69 116.194L233.714 116.233L233.759 116.311C233.789 116.362 233.822 116.416 233.846 116.473C234.02 116.866 234.077 117.26 234.119 117.638C234.158 118.02 234.158 118.389 234.14 118.752C234.101 119.479 234.002 120.185 233.84 120.873C233.516 122.245 233.047 123.564 232.485 124.84C231.813 126.366 231.14 127.957 230.314 129.447C229.404 131.081 228.374 132.654 227.149 134.093C226.386 134.967 225.548 135.799 224.542 136.448C224.16 136.691 223.749 136.904 223.301 137.048C222.857 137.192 222.37 137.271 221.884 137.219C221.653 137.189 221.376 137.144 221.127 136.991C220.881 136.841 220.692 136.604 220.583 136.358C220.376 135.856 220.397 135.369 220.442 134.919C220.523 134.213 220.71 133.558 220.926 132.916C221.142 132.273 221.409 131.657 221.722 131.057C221.86 130.792 221.995 130.534 222.157 130.276C222.752 129.318 223.184 129.15 223.509 129.156C223.587 129.159 223.677 129.156 223.731 129.174C223.824 129.21 223.806 129.324 223.737 129.504C223.662 129.684 223.548 129.958 223.361 130.282C222.794 131.237 222.322 132.318 221.938 133.399C221.752 133.94 221.596 134.496 221.535 135.015C221.505 135.273 221.499 135.526 221.535 135.715C221.572 135.913 221.638 135.994 221.68 136.021C221.701 136.072 222.118 136.15 222.439 136.09C222.779 136.042 223.139 135.919 223.491 135.736C224.196 135.363 224.866 134.802 225.476 134.177L225.497 134.195L225.494 134.192Z" fill="#231F20"/>
<path d="M244.285 128.285C243.64 127.174 242.925 126.101 242.183 125.044C241.91 124.663 241.597 124.309 241.321 123.927C240.324 122.603 239.279 121.305 238.156 120.074C237.915 119.795 237.645 119.536 237.384 119.275C237.117 119.017 236.861 118.752 236.585 118.512C236.231 118.203 235.882 117.885 235.54 117.557C235.366 117.398 235.185 117.245 235.029 117.068C234.873 116.887 234.717 116.704 234.567 116.521C234.381 116.287 234.489 116.215 234.792 116.245C234.945 116.26 235.146 116.296 235.381 116.356C235.495 116.389 235.624 116.419 235.741 116.476C235.855 116.533 235.972 116.605 236.083 116.686C236.867 117.281 237.597 117.942 238.285 118.644C238.636 118.987 238.97 119.35 239.297 119.72C239.627 120.086 239.94 120.467 240.24 120.864C240.603 121.332 240.997 121.789 241.378 122.257L241.964 122.954C242.15 123.194 242.336 123.435 242.519 123.672C243.327 124.726 244.063 125.834 244.781 126.948C245.204 127.648 245.637 128.339 246.027 129.057C246.177 129.327 246.334 129.594 246.481 129.868L246.904 130.693C247.196 131.24 247.442 131.805 247.718 132.354C248.121 133.219 248.574 134.042 248.919 134.925C248.994 135.12 249.088 135.303 249.145 135.505C249.199 135.691 249.238 135.85 249.265 135.982C249.289 136.117 249.292 136.232 249.292 136.325C249.292 136.514 249.256 136.634 249.193 136.739C249.166 136.787 249.142 136.847 249.115 136.877C249.024 136.982 248.796 136.724 248.481 136.244C248.385 136.057 248.277 135.877 248.19 135.688C248.09 135.502 247.991 135.316 247.889 135.129C247.688 134.757 247.532 134.363 247.331 133.985C247.135 133.604 246.961 133.21 246.763 132.829C246.565 132.444 246.37 132.06 246.171 131.673C245.544 130.546 244.961 129.387 244.264 128.294L244.288 128.279L244.285 128.285Z" fill="#231F20"/>
<path d="M230.209 147.322C229.933 146.878 229.653 146.433 229.353 146.004C229.065 145.565 228.746 145.148 228.434 144.727C228.209 144.415 227.93 144.154 227.695 143.85C227.488 143.583 227.263 143.334 227.041 143.078C226.818 142.823 226.599 142.568 226.362 142.328C226.128 142.084 225.899 141.832 225.659 141.595L224.92 140.898C224.704 140.688 224.461 140.511 224.227 140.321C223.989 140.138 223.755 139.946 223.506 139.784C222.881 139.339 222.235 138.925 221.686 138.351C221.512 138.177 221.578 138.129 221.818 138.123C221.938 138.123 222.109 138.126 222.307 138.144C222.407 138.153 222.515 138.165 222.626 138.183C222.683 138.192 222.734 138.207 222.797 138.213C222.848 138.237 222.899 138.258 222.95 138.285C223.311 138.474 223.653 138.688 223.998 138.904C224.338 139.129 224.65 139.387 224.968 139.643C225.125 139.772 225.284 139.898 225.44 140.03L225.887 140.445C226.185 140.721 226.479 141.006 226.746 141.316C227.083 141.67 227.422 142.03 227.764 142.394C227.936 142.577 228.113 142.751 228.281 142.937C228.443 143.126 228.608 143.316 228.77 143.505C229.131 143.916 229.446 144.364 229.78 144.793C230.095 145.238 230.413 145.682 230.714 146.136L231.257 146.98L231.777 147.836C232.044 148.265 232.278 148.716 232.534 149.151C232.777 149.593 233.02 150.034 233.26 150.472C233.447 150.815 233.645 151.145 233.846 151.476C234.044 151.806 234.23 152.142 234.417 152.479C234.501 152.626 234.588 152.77 234.66 152.923C234.93 153.497 234.93 153.719 234.756 153.947C234.714 154.001 234.678 154.061 234.633 154.1C234.48 154.236 234.218 154.073 233.942 153.698C233.555 153.13 233.179 152.539 232.831 151.929C232.657 151.623 232.486 151.313 232.317 151.001C232.146 150.692 231.972 150.379 231.801 150.067C231.549 149.602 231.275 149.148 231.02 148.686C230.741 148.238 230.482 147.773 230.188 147.334L230.209 147.319V147.322Z" fill="#231F20"/>
<path d="M233.828 134.101C234.095 133.717 234.386 133.348 234.627 132.939L234.999 132.338L235.338 131.714C235.419 131.561 235.498 131.407 235.573 131.251C235.642 131.092 235.711 130.933 235.786 130.777C236.326 129.681 236.792 128.536 237.206 127.371C237.399 126.857 237.531 126.32 237.678 125.794C237.762 125.455 237.864 125.119 237.963 124.782C238.059 124.443 238.164 124.109 238.315 123.782C238.405 123.578 238.435 123.614 238.477 123.815C238.501 123.941 238.531 124.082 238.558 124.23C238.582 124.398 238.585 124.593 238.564 124.797C238.516 125.158 238.471 125.521 238.411 125.878C238.333 126.233 238.236 126.584 238.146 126.936C237.948 127.635 237.735 128.335 237.444 129.014C237.101 129.825 236.801 130.687 236.423 131.507C236.209 131.954 235.978 132.393 235.741 132.828C235.482 133.251 235.251 133.693 234.96 134.098C234.786 134.351 234.624 134.609 234.437 134.852L233.876 135.579C233.584 135.939 233.263 136.276 232.957 136.621C232.617 136.936 232.302 137.279 231.96 137.582C231.689 137.816 231.434 138.063 231.173 138.306L230.335 138.967C230.212 139.069 230.086 139.153 229.947 139.234C229.884 139.27 229.824 139.303 229.77 139.333C229.713 139.357 229.659 139.375 229.611 139.393C229.512 139.426 229.431 139.447 229.356 139.456C229.212 139.474 229.11 139.447 229.007 139.384C228.959 139.354 228.908 139.333 228.872 139.3C228.758 139.195 228.893 138.955 229.185 138.648C230.107 137.849 231.077 137.096 231.969 136.21C232.317 135.9 232.608 135.534 232.93 135.195C233.092 135.023 233.224 134.831 233.374 134.648C233.515 134.462 233.675 134.285 233.804 134.089L233.825 134.101H233.828Z" fill="#231F20"/>
<path d="M228.893 135.748C228.851 135.639 228.809 135.528 228.77 135.42C228.755 135.381 228.725 135.351 228.713 135.312C228.671 135.168 228.65 135.012 228.608 134.874C228.59 134.811 228.563 134.754 228.533 134.699C228.494 134.627 228.443 134.564 228.452 134.468C228.452 134.411 228.797 134.318 228.86 134.384C228.962 134.507 229.053 134.636 229.086 134.799C229.104 134.898 229.191 134.961 229.23 135.048C229.275 135.144 229.323 135.24 229.371 135.336C229.401 135.396 229.431 135.456 229.464 135.513C229.515 135.597 229.56 135.691 229.623 135.769C229.674 135.826 229.752 135.862 229.806 135.916C229.818 135.928 229.833 135.937 229.845 135.949C229.881 136 229.863 136.042 229.77 136.138L229.707 136.204C229.635 136.273 229.551 136.309 229.485 136.3C229.392 136.285 229.299 136.261 229.23 136.219C229.164 136.174 229.107 136.12 229.056 136.06C228.983 135.97 228.938 135.859 228.881 135.757L228.893 135.748Z" fill="#231F20"/>
<path d="M231.467 131.477C231.455 131.417 231.443 131.36 231.428 131.3C231.422 131.279 231.41 131.261 231.404 131.24C231.386 131.165 231.374 131.087 231.35 131.015C231.341 130.982 231.323 130.955 231.308 130.924C231.287 130.888 231.254 130.855 231.26 130.807C231.26 130.777 231.455 130.711 231.488 130.75C231.539 130.819 231.581 130.894 231.596 130.985C231.605 131.039 231.644 131.078 231.668 131.126C231.692 131.18 231.717 131.234 231.738 131.288C231.753 131.321 231.762 131.357 231.774 131.39C231.792 131.441 231.807 131.495 231.831 131.543C231.852 131.579 231.885 131.609 231.909 131.642C231.915 131.648 231.921 131.654 231.927 131.663C231.945 131.693 231.933 131.711 231.882 131.747L231.846 131.771C231.804 131.795 231.762 131.804 231.735 131.789C231.653 131.747 231.599 131.69 231.551 131.624C231.518 131.576 231.485 131.528 231.458 131.474H231.464L231.467 131.477Z" fill="#231F20"/>
<path d="M233.449 126.341C233.425 126.26 233.422 126.173 233.407 126.089C233.401 126.059 233.383 126.035 233.38 126.005C233.368 125.897 233.362 125.786 233.347 125.683C233.341 125.638 233.323 125.596 233.305 125.554C233.281 125.503 233.242 125.455 233.263 125.386C233.272 125.344 233.585 125.278 233.624 125.329C233.687 125.422 233.735 125.521 233.741 125.641C233.741 125.714 233.798 125.768 233.825 125.828C233.855 125.897 233.885 125.966 233.909 126.038C233.924 126.083 233.936 126.128 233.954 126.173C233.981 126.239 234.002 126.308 234.047 126.365C234.083 126.407 234.146 126.431 234.182 126.47C234.191 126.479 234.203 126.485 234.212 126.494C234.236 126.53 234.212 126.563 234.107 126.645L234.035 126.699C233.954 126.759 233.87 126.789 233.819 126.78C233.747 126.765 233.678 126.747 233.633 126.711C233.591 126.672 233.561 126.627 233.534 126.575C233.494 126.503 233.467 126.422 233.437 126.347L233.449 126.341Z" fill="#231F20"/>
</svg>
